<svg id="Component_2_3" data-name="Component 2 – 3" xmlns="http://www.w3.org/2000/svg" width="238" height="45.008" viewBox="0 0 238 45.008">
  <path id="Goto_button" data-name="Goto button" d="M447.333,707.178a2.99,2.99,0,0,1,0-3.944l13.5-14.884H424.75A1.75,1.75,0,0,1,423,686.6v-2.125a1.75,1.75,0,0,1,1.75-1.75h36.171l-13.588-14.979a2.99,2.99,0,0,1,0-3.944,2.374,2.374,0,0,1,3.584,0l17.476,19.265a2.578,2.578,0,0,1,.455.4,3.132,3.132,0,0,1,0,4.047,2.6,2.6,0,0,1-.454.4l-17.477,19.267a2.375,2.375,0,0,1-3.584,0ZM463,685.964l.429-.473-.429-.473Z" transform="translate(-423 -662.986)" fill="#fff"/>
  <text id="Go_to_team_page" data-name="Go to team page" transform="translate(71 9.014)" fill="#fff" font-size="22" font-family="Lato-Regular, Lato" opacity="0"><tspan x="0" y="22">Go to team page</tspan></text>
</svg>
