<svg xmlns="http://www.w3.org/2000/svg" width="246" height="68" viewBox="0 0 246 68">
  <g id="Social_Media" data-name="Social Media" transform="translate(-1563 -871)">
    <path id="icons8-behance" d="M51,32.431a7.354,7.354,0,0,1,1.308,2.877H43.938A2.844,2.844,0,0,1,44.2,34a3.484,3.484,0,0,1,.785-1.308,2.611,2.611,0,0,1,1.308-1.046,4.927,4.927,0,0,1,2.092-.523A4.179,4.179,0,0,1,51,32.431ZM26.938,30.6a3.632,3.632,0,0,0,.785-3.923c-.262-.262-.523-.785-.785-.785-.262-.262-.785-.262-1.308-.523h-6.8v6.015h5.754A4.218,4.218,0,0,0,26.938,30.6Zm-2.092,4.446H18.831v7.062h6.015a3.317,3.317,0,0,0,1.569-.262,2,2,0,0,0,1.308-.523c.262-.262.785-.523,1.046-1.046a3.317,3.317,0,0,0,.262-1.569c0-1.308-.262-2.354-1.046-2.877A5.578,5.578,0,0,0,24.846,35.046ZM68,12.815V55.185A12.836,12.836,0,0,1,55.185,68H12.815A12.836,12.836,0,0,1,0,55.185V12.815A12.836,12.836,0,0,1,12.815,0H55.185A12.836,12.836,0,0,1,68,12.815ZM42.892,25.108H53.354V22.492H42.892ZM34.523,39.231a7.675,7.675,0,0,0-1.046-4.185,6.642,6.642,0,0,0-3.4-2.354A7.121,7.121,0,0,0,32.692,30.6a5.578,5.578,0,0,0,.785-3.138,11.24,11.24,0,0,0-.523-3.138,5.672,5.672,0,0,0-1.569-1.831,7.832,7.832,0,0,0-2.615-1.046,8.9,8.9,0,0,0-3.662-.523H13.077V46.554H25.631a15.307,15.307,0,0,0,3.4-.523,9.668,9.668,0,0,0,2.877-1.308A6.175,6.175,0,0,0,34,42.369,9.755,9.755,0,0,0,34.523,39.231Zm9.415-.785H57.277a21.14,21.14,0,0,0-.262-4.185,6.847,6.847,0,0,0-1.569-3.4,8.176,8.176,0,0,0-2.877-2.354,10.965,10.965,0,0,0-4.185-1.046,10.494,10.494,0,0,0-3.923.785,21.817,21.817,0,0,0-3.138,2.092,6.277,6.277,0,0,0-1.831,3.138,10.494,10.494,0,0,0-.785,3.923,9.554,9.554,0,0,0,.785,3.923,9.044,9.044,0,0,0,1.831,3.138A11.612,11.612,0,0,0,44.2,46.554a10.494,10.494,0,0,0,3.923.785,9.669,9.669,0,0,0,5.492-1.569,9.215,9.215,0,0,0,3.4-4.708H52.569a3.486,3.486,0,0,1-1.308,1.569,4.418,4.418,0,0,1-2.615.785,4.823,4.823,0,0,1-3.4-1.046A6.424,6.424,0,0,1,43.938,38.446Z" transform="translate(1652 871)"/>
    <g id="icons8-instagram_1_" data-name="icons8-instagram (1)" transform="translate(1738 868)">
      <path id="Path_2" data-name="Path 2" d="M50.909,3H23.091A20.11,20.11,0,0,0,3,23.091V50.909A20.11,20.11,0,0,0,23.091,71H50.909A20.11,20.11,0,0,0,71,50.909V23.091A20.11,20.11,0,0,0,50.909,3ZM37,54A17,17,0,1,1,54,37,17.01,17.01,0,0,1,37,54ZM55.545,21.545a3.091,3.091,0,1,1,3.091-3.091A3.1,3.1,0,0,1,55.545,21.545Z"/>
      <path id="Path_3" data-name="Path 3" d="M34,25a9,9,0,1,1-9-9A9.014,9.014,0,0,1,34,25Z" transform="translate(12 12)"/>
    </g>
    <path id="icons8-linkedin" d="M55.25,0H12.75A12.748,12.748,0,0,0,0,12.75v42.5A12.748,12.748,0,0,0,12.75,68h42.5A12.748,12.748,0,0,0,68,55.25V12.75A12.748,12.748,0,0,0,55.25,0ZM21.025,57.719H10.462L10.4,26.094H20.965ZM15.478,21.954h-.065a5.32,5.32,0,0,1-5.678-5.341c0-3.031,2.3-5.338,5.811-5.338s5.678,2.307,5.743,5.338C21.289,19.576,19.058,21.954,15.478,21.954Zm42.17,35.768H46.991V40.536c0-4.153-1.1-6.986-4.818-6.986a5.414,5.414,0,0,0-5.113,3.758,7.006,7.006,0,0,0-.34,2.5V57.724H26.01l-.06-31.63H36.66l.06,4.459a9.9,9.9,0,0,1,9.1-5.108c6.758,0,11.824,4.415,11.824,13.906v18.37Z" transform="translate(1563 871)"/>
  </g>
</svg>
